<mxfile host="app.diagrams.net" modified="2023-12-16T10:46:36.059Z" agent="Mozilla/5.0 (Windows NT 10.0; Win64; x64) AppleWebKit/537.36 (KHTML, like Gecko) Chrome/120.0.0.0 Safari/537.36" etag="G20Vl2R-tK1esEP5Ikbl" version="22.1.11" type="github">
  <diagram name="Page-1" id="wm8iPYi2ckH33cWcQ5Rt">
    <mxGraphModel dx="1405" dy="752" grid="1" gridSize="10" guides="1" tooltips="1" connect="1" arrows="1" fold="1" page="1" pageScale="1" pageWidth="4681" pageHeight="3300" math="0" shadow="0">
      <root>
        <mxCell id="0" />
        <mxCell id="1" parent="0" />
        <mxCell id="vzbgIujVN7UDoNvRMisL-1" value="&lt;h1&gt;Automatic Call Distribution&lt;/h1&gt;&lt;p&gt;on SIP PBx v3&lt;/p&gt;" style="text;html=1;strokeColor=none;fillColor=none;spacing=5;spacingTop=-20;whiteSpace=wrap;overflow=hidden;rounded=0;" vertex="1" parent="1">
          <mxGeometry x="200" y="80" width="410" height="120" as="geometry" />
        </mxCell>
        <mxCell id="vzbgIujVN7UDoNvRMisL-2" value="STAFF 1&lt;br&gt;301" style="rounded=1;whiteSpace=wrap;html=1;fillColor=#FFCC99;" vertex="1" parent="1">
          <mxGeometry x="40" y="400" width="120" height="60" as="geometry" />
        </mxCell>
        <mxCell id="vzbgIujVN7UDoNvRMisL-3" value="STAFF 2&lt;br&gt;302" style="rounded=1;whiteSpace=wrap;html=1;fillColor=#FFCC99;" vertex="1" parent="1">
          <mxGeometry x="40" y="480" width="120" height="60" as="geometry" />
        </mxCell>
        <mxCell id="vzbgIujVN7UDoNvRMisL-4" value="CALLER&lt;br&gt;101" style="rounded=1;whiteSpace=wrap;html=1;fillColor=#FF9999;" vertex="1" parent="1">
          <mxGeometry x="480" y="440" width="120" height="60" as="geometry" />
        </mxCell>
        <mxCell id="vzbgIujVN7UDoNvRMisL-5" value="CUST SERV 5&lt;br&gt;205" style="rounded=1;whiteSpace=wrap;html=1;fillColor=#FFE6CC;" vertex="1" parent="1">
          <mxGeometry x="240" y="600" width="120" height="60" as="geometry" />
        </mxCell>
        <mxCell id="vzbgIujVN7UDoNvRMisL-8" value="CUST SERV 2&lt;br&gt;202" style="rounded=1;whiteSpace=wrap;html=1;fillColor=#FFE6CC;" vertex="1" parent="1">
          <mxGeometry x="240" y="360" width="120" height="60" as="geometry" />
        </mxCell>
        <mxCell id="vzbgIujVN7UDoNvRMisL-9" value="CUST SERV 3&lt;br&gt;203" style="rounded=1;whiteSpace=wrap;html=1;fillColor=#FFE6CC;" vertex="1" parent="1">
          <mxGeometry x="240" y="440" width="120" height="60" as="geometry" />
        </mxCell>
        <mxCell id="vzbgIujVN7UDoNvRMisL-10" value="CUST SERV 4&lt;br&gt;204" style="rounded=1;whiteSpace=wrap;html=1;fillColor=#FFE6CC;" vertex="1" parent="1">
          <mxGeometry x="240" y="520" width="120" height="60" as="geometry" />
        </mxCell>
        <mxCell id="vzbgIujVN7UDoNvRMisL-14" value="CUST SERV 1&lt;br&gt;201" style="rounded=1;whiteSpace=wrap;html=1;fillColor=#FFE6CC;" vertex="1" parent="1">
          <mxGeometry x="240" y="280" width="120" height="60" as="geometry" />
        </mxCell>
        <mxCell id="vzbgIujVN7UDoNvRMisL-18" value="" style="endArrow=none;html=1;rounded=0;shape=link;" edge="1" parent="1">
          <mxGeometry width="50" height="50" relative="1" as="geometry">
            <mxPoint x="400" y="720" as="sourcePoint" />
            <mxPoint x="400" y="240" as="targetPoint" />
          </mxGeometry>
        </mxCell>
      </root>
    </mxGraphModel>
  </diagram>
</mxfile>
